<svg width="94" height="32" viewBox="0 0 94 32" fill="none" xmlns="http://www.w3.org/2000/svg">
<path d="M6.06855 32C5.67876 32 5.48387 31.8051 5.48387 31.4153V7.04597H1.39113C1.00134 7.04597 0.806452 6.85108 0.806452 6.46129V1.40968C0.806452 1.01989 1.00134 0.824999 1.39113 0.824999H17.3645C17.7543 0.824999 17.9492 1.01989 17.9492 1.40968V6.46129C17.9492 6.85108 17.7543 7.04597 17.3645 7.04597H13.2718V31.4153C13.2718 31.8051 13.0769 32 12.6871 32H6.06855ZM29.4008 32C29.0422 32 28.7304 31.8675 28.4653 31.6024L23.7879 26.925C23.5229 26.6755 23.3903 26.3637 23.3903 25.9895V12.2847C23.3903 11.9105 23.5229 11.5987 23.7879 11.3492L28.4653 6.67177C28.7304 6.40672 29.0422 6.27419 29.4008 6.27419H36.4871C36.8613 6.27419 37.1731 6.40672 37.4226 6.67177L42.1 11.3492C42.3651 11.5987 42.4976 11.9105 42.4976 12.2847V25.9895C42.4976 26.3637 42.3651 26.6755 42.1 26.925L37.4226 31.6024C37.1731 31.8675 36.8613 32 36.4871 32H29.4008ZM32.1371 26.5508H33.7742C34.2731 26.5508 34.6162 26.4495 34.8033 26.2468C34.9903 26.0441 35.0839 25.6855 35.0839 25.171V13.1032C35.0839 12.5887 34.9903 12.2301 34.8033 12.0274C34.6162 11.8247 34.2731 11.7234 33.7742 11.7234H32.1371C31.6226 11.7234 31.2718 11.8247 31.0847 12.0274C30.8976 12.2301 30.8041 12.5887 30.8041 13.1032V25.171C30.8041 25.6855 30.8976 26.0441 31.0847 26.2468C31.2718 26.4495 31.6226 26.5508 32.1371 26.5508ZM48.367 32C47.9773 32 47.7824 31.8051 47.7824 31.4153V1.40968C47.7824 1.01989 47.9773 0.824999 48.367 0.824999H62.6332C63.0074 0.824999 63.3192 0.94973 63.5687 1.19919L68.2461 5.87661C68.5111 6.14167 68.6436 6.45349 68.6436 6.8121V25.9895C68.6436 26.3637 68.5111 26.6755 68.2461 26.925L63.5687 31.6024C63.3192 31.8675 63.0074 32 62.6332 32H48.367ZM55.5937 25.7556H59.8735C60.5283 25.7556 60.8557 25.3191 60.8557 24.446V8.37903C60.8557 7.49032 60.5283 7.04597 59.8735 7.04597H55.5937V25.7556ZM79.9206 32C79.562 32 79.2502 31.8675 78.9851 31.6024L74.3077 26.925C74.0427 26.6755 73.9101 26.3637 73.9101 25.9895V12.2847C73.9101 11.9105 74.0427 11.5987 74.3077 11.3492L78.9851 6.67177C79.2502 6.40672 79.562 6.27419 79.9206 6.27419H87.0069C87.3811 6.27419 87.6929 6.40672 87.9424 6.67177L92.6198 11.3492C92.8849 11.5987 93.0174 11.9105 93.0174 12.2847V25.9895C93.0174 26.3637 92.8849 26.6755 92.6198 26.925L87.9424 31.6024C87.6929 31.8675 87.3811 32 87.0069 32H79.9206ZM82.6569 26.5508H84.294C84.7929 26.5508 85.1359 26.4495 85.323 26.2468C85.5101 26.0441 85.6037 25.6855 85.6037 25.171V13.1032C85.6037 12.5887 85.5101 12.2301 85.323 12.0274C85.1359 11.8247 84.7929 11.7234 84.294 11.7234H82.6569C82.1424 11.7234 81.7916 11.8247 81.6045 12.0274C81.4174 12.2301 81.3238 12.5887 81.3238 13.1032V25.171C81.3238 25.6855 81.4174 26.0441 81.6045 26.2468C81.7916 26.4495 82.1424 26.5508 82.6569 26.5508Z" fill="url(#paint0_linear_45_9)"/>
<defs>
<linearGradient id="paint0_linear_45_9" x1="48" y1="-15" x2="48" y2="43" gradientUnits="userSpaceOnUse">
<stop stop-color="#F8A73E"/>
<stop offset="1" stop-color="#666666"/>
</linearGradient>
</defs>
</svg>
